<?xml version="1.0" standalone="no"?><!DOCTYPE svg PUBLIC "-//W3C//DTD SVG 1.1//EN" "http://www.w3.org/Graphics/SVG/1.1/DTD/svg11.dtd"><svg t="1679186657960" class="icon" viewBox="0 0 1024 1024" version="1.1" xmlns="http://www.w3.org/2000/svg" p-id="1623" width="32" height="32" xmlns:xlink="http://www.w3.org/1999/xlink"><path d="M557 564.974l153.188-181.04c16.054-18.972 44.448-21.34 63.42-5.286 18.972 16.054 21.338 44.448 5.284 63.42L550.56 711.92a44.982 44.982 0 0 1-8.95 10.254 44.872 44.872 0 0 1-15.082 8.432A44.944 44.944 0 0 1 512 733c-16.264 0-30.512-8.628-38.42-21.556L245.65 442.068c-16.052-18.972-13.686-47.366 5.286-63.42 18.972-16.052 47.366-13.686 63.42 5.286l152.646 180.4V157c0-24.852 20.148-45 45-45s45 20.148 45 45v407.974zM823 630c0-24.852 20.148-45 45-45s45 20.148 45 45v238c0 24.87-20.176 45.026-45.046 45l-710-0.726c-24.834-0.026-44.954-20.166-44.954-45V630c0-24.852 20.148-45 45-45s45 20.148 45 45v192.32l620 0.634V630z" fill="#2c2c2c" p-id="1624" transform="translate(0, -40)"></path></svg>