<?xml version="1.0" standalone="no"?><!DOCTYPE svg PUBLIC "-//W3C//DTD SVG 1.1//EN" "http://www.w3.org/Graphics/SVG/1.1/DTD/svg11.dtd"><svg t="1677622909744" class="icon" viewBox="0 0 1024 1024" version="1.1" xmlns="http://www.w3.org/2000/svg" p-id="18412" width="32" height="32" xmlns:xlink="http://www.w3.org/1999/xlink"><path d="M798.165333 97.834667a42.624 42.624 0 0 0-60.330666 0l-554.666667 554.666666a42.794667 42.794667 0 0 0-11.221333 19.797334l-42.666667 170.666666a42.666667 42.666667 0 0 0 51.712 51.754667l170.666667-42.666667c7.509333-1.877333 14.378667-5.76 19.84-11.221333l554.666666-554.666667a42.624 42.624 0 0 0 0-60.330666l-128-128zM319.488 772.138667l-90.197333 22.528 22.570666-90.197334L640 316.330667 707.669333 384l-388.181333 388.138667zM768 323.669333L700.330667 256 768 188.330667 835.669333 256 768 323.669333z" fill="#2c2c2c" p-id="18413"></path></svg>